<?xml version="1.0"?>
<svg width="640" height="480" xmlns="http://www.w3.org/2000/svg" xmlns:svg="http://www.w3.org/2000/svg">
 <!-- Created with SVG-edit - https://github.com/SVG-Edit/svgedit-->
 <g class="layer">
  <title>Layer 1</title>
  <path d="m392.2,94c3.26,0 3.68,-0.01 4.58,0.04c0.99,0.05 1.51,0.08 3.14,0.4c0.57,0.11 1.15,0.26 2.36,0.6c0.64,0.18 1.29,0.37 1.97,0.56c1.44,0.4 2.21,0.6 3,0.8c0.82,0.21 1.65,0.41 2.51,0.62c0.87,0.21 1.75,0.43 2.64,0.66c1.8,0.47 2.7,0.73 3.59,1c0.89,0.27 1.76,0.55 2.62,0.84c0.84,0.28 1.66,0.57 2.44,0.88c1.48,0.58 2.16,0.89 2.8,1.2c0.62,0.3 1.2,0.6 1.76,0.92c0.54,0.31 1.07,0.63 1.58,0.96c1.01,0.67 1.51,1.03 2.51,1.77c0.51,0.38 1.03,0.77 1.56,1.15c0.54,0.4 2.26,1.59 2.87,1.99c0.62,0.4 1.27,0.8 1.92,1.21c0.66,0.41 1.33,0.82 1.99,1.25c0.67,0.43 1.99,1.3 2.63,1.76c0.64,0.46 1.26,0.93 1.88,1.4c0.61,0.47 1.2,0.95 1.79,1.42c0.58,0.47 1.69,1.39 2.78,2.27c0.53,0.43 1.05,0.85 1.56,1.26c0.51,0.41 1.52,1.22 2.52,2.02c0.5,0.4 1,0.79 1.98,1.6c0.48,0.4 0.96,0.78 1.85,1.6c0.85,0.78 1.24,1.19 1.97,2.01c0.36,0.41 1.06,1.29 1.41,1.76c0.37,0.48 1.54,2.09 1.97,2.68c0.45,0.61 0.92,1.24 1.41,1.87c0.5,0.64 1.03,1.29 1.59,1.91c1.13,1.26 1.76,1.83 2.39,2.4c0.63,0.57 1.28,1.11 1.93,1.65c0.65,0.54 1.3,1.06 1.93,1.6c1.25,1.07 1.83,1.63 2.4,2.2c0.56,0.57 1.09,1.15 1.61,1.74c0.51,0.59 1,1.18 1.47,1.78c0.93,1.19 1.37,1.8 1.8,2.4c0.43,0.6 0.84,1.2 1.25,1.8c0.4,0.6 0.79,1.2 1.15,1.8c0.73,1.19 1.08,1.79 1.72,3c0.32,0.6 0.62,1.2 0.92,1.8c0.29,0.6 1.08,2.4 1.33,3c0.24,0.6 0.47,1.21 0.7,1.82c0.46,1.25 0.68,1.89 0.91,2.55c0.48,1.36 0.74,2.07 1,2.8c0.27,0.74 0.54,1.49 0.82,2.25c0.28,0.76 0.55,1.53 0.82,2.3c0.52,1.51 0.77,2.26 1,3c0.23,0.73 0.44,1.46 0.65,2.18c0.2,0.72 0.39,1.45 0.55,2.18c0.5,2.23 0.6,3 0.73,3.76c0.12,0.76 0.24,1.51 0.35,2.26c0.11,0.73 0.2,1.44 0.41,2.8c0.1,0.64 0.3,1.84 0.39,2.41c0.18,1.13 0.26,1.69 0.33,2.25c0.19,1.77 0.2,2.4 0.23,3.04c0.02,0.65 0.05,1.94 0.05,2.59c0,0.64 0,2.46 0,3.04c0,0.56 0,1.67 0,2.22c0,1.12 0,2.28 0,2.89c0,1.28 0,1.94 0,2.62c0,0.69 0,1.4 0,2.13c0,1.48 0,2.23 0,3c-0.01,0.78 -0.02,1.57 -0.06,2.37c-0.04,0.82 -0.09,1.66 -0.19,2.51c-0.21,1.77 -0.4,2.67 -0.6,3.6c-0.21,0.94 -0.45,1.89 -0.73,2.85c-0.28,0.97 -0.58,1.93 -0.91,2.9c-0.66,1.92 -1.03,2.86 -1.39,3.79c-0.36,0.92 -0.73,1.82 -1.1,2.71c-0.36,0.87 -0.71,1.71 -1.05,2.53c-0.64,1.56 -0.93,2.29 -1.2,3c-0.26,0.69 -0.52,1.36 -0.77,2.01c-0.25,0.65 -0.5,1.29 -0.77,1.92c-0.55,1.29 -0.87,1.94 -1.21,2.6c-0.34,0.67 -0.71,1.35 -1.11,2.02c-0.4,0.68 -0.83,1.36 -1.29,2.02c-0.94,1.34 -1.46,1.97 -2,2.6c-0.54,0.63 -1.1,1.25 -1.67,1.86c-0.58,0.61 -1.17,1.22 -1.76,1.82c-1.19,1.21 -1.8,1.8 -2.4,2.4c-0.6,0.6 -1.21,1.19 -1.82,1.76c-0.61,0.57 -1.23,1.14 -1.86,1.67c-1.26,1.06 -1.93,1.54 -2.6,2c-0.67,0.46 -1.35,0.9 -2.04,1.31c-0.69,0.41 -1.38,0.8 -2.08,1.17c-1.39,0.74 -2.1,1.07 -2.8,1.4c-0.7,0.33 -1.4,0.64 -2.1,0.93c-0.7,0.29 -1.4,0.56 -2.1,0.79c-1.39,0.46 -2.1,0.64 -2.8,0.8c-0.7,0.16 -1.41,0.3 -2.12,0.41c-0.71,0.11 -1.44,0.21 -2.16,0.27c-1.48,0.14 -2.24,0.17 -3,0.2c-0.78,0.03 -1.57,0.03 -2.37,0.01c-0.82,-0.03 -1.66,-0.07 -2.51,-0.17c-1.77,-0.21 -2.67,-0.4 -3.6,-0.6c-0.95,-0.2 -1.91,-0.44 -2.89,-0.69c-1,-0.25 -2,-0.52 -3.03,-0.78c-2.08,-0.52 -3.13,-0.76 -4.19,-1c-1.05,-0.23 -2.1,-0.46 -3.12,-0.68c-1,-0.22 -1.97,-0.44 -2.89,-0.68c-1.72,-0.46 -2.49,-0.72 -3.2,-1c-0.67,-0.26 -1.3,-0.55 -1.89,-0.86c-0.57,-0.3 -1.1,-0.61 -1.62,-0.94c-1.02,-0.66 -1.51,-1.03 -2.01,-1.4c-0.5,-0.37 -0.99,-0.75 -1.48,-1.14c-0.49,-0.39 -0.97,-0.78 -1.44,-1.18c-0.93,-0.79 -1.37,-1.2 -1.8,-1.6c-0.43,-0.4 -0.85,-0.8 -1.26,-1.2c-0.41,-0.4 -0.82,-0.8 -1.22,-1.2c-0.8,-0.8 -1.2,-1.2 -1.6,-1.61c-0.4,-0.41 -0.82,-0.82 -1.6,-1.74c-0.41,-0.48 -0.83,-0.98 -1.6,-2.12c-0.41,-0.61 -0.81,-1.27 -1.2,-1.96c-0.4,-0.71 -0.79,-1.44 -1.17,-2.18c-0.38,-0.75 -0.76,-1.51 -1.47,-3.03c-0.35,-0.74 -0.68,-1.48 -1.01,-2.22c-0.33,-0.73 -0.65,-1.47 -0.98,-2.21c-0.33,-0.75 -0.66,-1.51 -1.34,-3.07c-0.35,-0.81 -0.72,-1.63 -1.07,-2.48c-0.36,-0.85 -0.71,-1.71 -1.03,-2.58c-0.32,-0.86 -0.64,-1.72 -1.07,-3.45c-0.21,-0.84 -0.34,-1.68 -0.44,-2.5c-0.1,-0.81 -0.15,-1.6 -0.19,-2.38c-0.03,-0.76 -0.04,-1.51 -0.04,-2.95c0,-0.69 0,-1.36 0,-2.02c0,-0.64 0,-1.27 0,-1.89c0,-0.61 0,-1.22 0,-3.02c0,-0.6 0,-1.19 0.02,-2.36c0.01,-0.57 0.04,-1.67 0.15,-2.71c0.1,-0.96 0.25,-1.86 0.48,-2.68c0.21,-0.78 0.65,-1.85 1.01,-2.49c0.35,-0.62 0.97,-1.47 1.76,-2.02c0.79,-0.55 1.46,-0.74 2.15,-0.94c1.16,-0.33 2.04,-0.51 2.5,-0.61c0.95,-0.22 1.94,-0.46 2.93,-0.76c1,-0.3 1.5,-0.49 2.5,-0.81c0.5,-0.16 1.49,-0.49 2.5,-0.69c1,-0.2 1.51,-0.24 2.54,-0.29c0.53,-0.03 1.63,-0.04 2.79,-0.04c1.23,0 1.87,0 2.52,0c0.65,0 1.94,0 2.58,0c1.23,0 1.83,0 2.95,0c0.54,0 1.59,0.01 2.61,0.08c1,0.07 2,0.19 2.49,0.28c0.97,0.16 1.9,0.39 2.34,0.52c1.24,0.39 1.97,0.73 2.91,1.32c0.58,0.37 1.35,0.98 2.03,1.6c0.69,0.63 1.4,1.35 1.91,1.88c0.55,0.56 1.12,1.17 1.63,1.88c0.81,1.14 1.02,1.59 1.44,2.5c0.21,0.47 0.59,1.43 0.76,1.93c0.49,1.49 0.61,2 0.86,3.01c0.13,0.51 0.37,1.55 0.51,2.07c0.42,1.64 0.6,2.2 0.77,2.77c0.35,1.16 0.53,1.75 0.69,2.35c0.5,1.79 0.63,2.39 0.77,2.99c0.27,1.19 0.38,1.78 0.51,2.37c0.25,1.15 0.54,2.27 0.7,2.81c0.32,1.08 0.51,1.6 0.85,2.68c0.18,0.55 0.38,1.1 0.8,2.88c0.15,0.62 0.27,1.27 0.38,1.92c0.22,1.32 0.29,1.99 0.36,2.66c0.13,1.31 0.18,1.96 0.23,3.23c0.02,0.63 0.03,1.25 0.02,1.88c-0.03,1.26 -0.12,2.54 -0.18,3.2c-0.06,0.67 -0.22,2.03 -0.32,2.72c-0.1,0.71 -0.21,1.42 -0.35,2.15c-0.27,1.48 -0.43,2.24 -0.6,3c-0.17,0.77 -0.35,1.55 -0.54,2.34c-0.19,0.79 -0.38,1.58 -0.58,2.38c-0.4,1.6 -0.6,2.4 -0.8,3.2c-0.2,0.8 -0.4,1.59 -0.6,2.38c-0.2,0.78 -0.4,1.56 -0.6,2.34c-0.4,1.52 -0.6,2.26 -0.8,3c-0.2,0.73 -0.41,1.44 -0.62,2.14c-0.21,0.7 -0.4,1.39 -1.15,3.38c-0.24,0.65 -0.51,1.28 -0.79,1.91c-0.27,0.62 -0.55,1.24 -1.09,2.45c-0.27,0.6 -0.79,1.8 -1.03,2.4c-0.48,1.2 -0.7,1.8 -0.92,2.4c-0.23,0.6 -0.67,1.8 -1.17,3c-0.25,0.6 -0.51,1.2 -0.8,1.8c-0.57,1.22 -0.88,1.83 -1.2,2.45c-0.32,0.63 -1,1.91 -1.36,2.56c-0.36,0.66 -0.73,1.34 -1.11,2.01c-0.38,0.69 -0.77,1.37 -1.17,2.07c-0.4,0.7 -1.2,2.1 -1.6,2.8c-0.4,0.7 -0.8,1.41 -1.21,2.12c-0.41,0.72 -0.83,1.45 -1.25,2.19c-0.43,0.76 -1.31,2.32 -1.76,3.13c-0.46,0.83 -0.94,1.67 -1.42,2.52c-0.49,0.86 -1,1.73 -1.52,2.59c-0.52,0.87 -1.6,2.58 -2.16,3.43c-0.56,0.84 -1.13,1.66 -1.7,2.48c-0.57,0.81 -1.15,1.6 -1.72,2.39c-0.57,0.78 -1.69,2.29 -2.23,3.04c-0.54,0.73 -1.06,1.46 -1.58,2.16c-0.5,0.69 -1,1.38 -1.48,2.04c-0.47,0.65 -1.39,1.89 -1.84,2.48c-0.43,0.57 -0.86,1.12 -1.26,1.66c-0.4,0.52 -0.78,1.02 -1.14,1.52c-0.35,0.48 -0.99,1.4 -1.28,1.84c-0.28,0.43 -0.53,0.86 -0.78,1.26c-0.24,0.39 -0.47,0.78 -0.71,1.14c-0.69,1.01 -1.22,1.56 -1.78,2.05c-0.54,0.47 -1.11,0.85 -2.09,1.67c-0.66,0.55 -1.11,1.26 -2.17,1.56c-0.89,0.25 -1.79,1.05 -2.46,0.62c-0.77,-0.49 -0.06,-1.59 -0.06,-2.4c0,-1.18 0,-2.09 0,-2.72c0,-0.67 0,-2.2 0,-2.63c0,-0.89 0,-1.82 0,-2.75c0,-0.92 0,-1.8 0,-2.65c0,-0.83 0,-1.63 0,-2.84c0,-0.8 0,-1.6 0,-2.4c0,-1.2 0,-2 0,-2.77c0,-0.72 -0.06,-1.93 0.01,-2.75c0.08,-1.03 0.31,-1.7 0.6,-2.44c0.44,-1.13 0.32,-2.75 1.35,-2.63c0.15,0.02 0.04,1.04 0.04,1.98c0,1.01 0,1.67 0,2.73c0,0.64 0,1.69 0,2.42c0,1.08 0,2.09 0,2.71c0,0.86 0.04,1.86 -0.04,2.77c-0.08,0.95 -0.33,1.72 -0.54,2.55c-0.27,1.06 -0.39,1.77 -0.42,2.62c-0.03,1 0.01,1.8 0,2.8c-0.01,0.76 -0.58,1.56 -0.91,2.37c-0.32,0.78 -0.09,1.83 -0.09,2.63c0,1 0.11,1.81 -0.17,2.63c-0.29,0.86 0.17,1.18 0.97,1.17c0.91,-0.02 1.7,-0.16 2.56,-0.35c0.66,-0.14 1.67,-0.4 2.59,-0.53c1,-0.14 1.64,-0.08 2.64,-0.13c0.92,-0.04 1.73,-0.54 2.57,-0.83c0.88,-0.3 1.69,-0.24 2.7,-0.39c0.82,-0.12 1.74,-0.28 2.24,-0.35c1.07,-0.15 2.23,-0.26 2.84,-0.3c0.63,-0.04 1.91,-0.09 2.56,-0.1c0.65,-0.01 1.29,-0.02 3.17,-0.02c0.59,0 1.7,0 2.22,0l0.95,0l0.82,0" fill="none" id="svg_11" stroke="#4381c1" stroke-linecap="square" stroke-linejoin="round" stroke-width="10"/>
 </g>
</svg>