<?xml version="1.0"?>
<svg width="42" height="5" xmlns="http://www.w3.org/2000/svg" xmlns:svg="http://www.w3.org/2000/svg">
 <!-- Created with SVG-edit - https://github.com/SVG-Edit/svgedit-->
 <g class="layer">
  <title>Layer 1</title>
  <path d="m1.79,2.67c0.72,-0.48 1.61,-0.54 2.49,-0.66c0.89,-0.12 1.79,-0.11 2.65,0.04c0.89,0.16 1.72,0.41 2.59,0.59c0.87,0.18 1.74,0.28 2.65,0.26c0.87,-0.02 1.73,-0.31 2.63,-0.43c0.83,-0.11 1.76,-0.04 2.68,0.06c0.85,0.1 1.65,0.61 2.53,0.62c0.9,0.01 1.74,-0.16 2.64,-0.29c0.9,-0.13 1.75,-0.42 2.63,-0.56c0.88,-0.14 1.76,-0.16 2.62,-0.22c0.9,-0.06 1.79,0.01 2.65,0.28c0.82,0.26 1.7,0.37 2.62,0.45c0.83,0.07 1.77,0.18 2.63,0.09c0.88,-0.09 1.75,-0.37 2.6,-0.64l0.87,-0.12l0.87,0.09" fill="none" id="svg_3" stroke="#4381c1" stroke-linecap="round" stroke-linejoin="round" stroke-width="3"/>
 </g>
</svg>