<?xml version="1.0" standalone="no"?>
<!DOCTYPE svg PUBLIC "-//W3C//DTD SVG 20010904//EN"
 "http://www.w3.org/TR/2001/REC-SVG-20010904/DTD/svg10.dtd">
<svg version="1.0" xmlns="http://www.w3.org/2000/svg"
 width="100.000000pt" height="100.000000pt" viewBox="0 0 100.000000 100.000000"
 preserveAspectRatio="xMidYMid meet">
<metadata>
Created by potrace 1.14, written by Peter Selinger 2001-2017
</metadata>
<g transform="translate(0.000000,100.000000) scale(0.100000,-0.100000)"
fill="#000000" stroke="none">
<path d="M175 916 c-94 -43 -137 -145 -131 -306 4 -99 31 -180 84 -254 24 -34
36 -64 39 -95 5 -60 43 -123 96 -159 37 -26 78 -45 99 -47 3 0 9 -3 13 -7 4
-4 13 -4 20 -2 7 3 16 0 20 -6 5 -8 11 -8 21 1 11 9 14 9 14 -1 0 -9 4 -9 17
1 15 12 16 12 10 -5 -6 -14 -4 -16 5 -9 17 13 60 24 53 13 -3 -4 6 -7 20 -6
14 0 25 4 25 7 0 4 11 9 24 11 19 4 23 1 19 -11 -4 -11 -1 -10 9 3 8 10 20 16
26 12 7 -4 12 -4 12 1 0 16 48 31 60 19 8 -8 10 -7 5 5 -4 10 -1 20 6 25 8 4
10 3 5 -4 -5 -8 -2 -10 8 -6 9 3 14 9 11 13 -4 8 31 42 37 36 2 -2 10 6 17 18
13 20 13 21 -2 9 -14 -12 -15 -10 -4 17 6 17 18 31 27 32 10 0 11 2 3 6 -7 2
-13 9 -13 14 0 6 4 8 9 4 11 -6 7 28 -5 47 -5 8 -2 9 10 5 10 -4 15 -3 11 3
-6 10 41 87 51 82 3 -2 9 0 12 4 4 4 1 4 -5 0 -7 -4 -13 -2 -13 4 0 6 7 13 16
17 10 4 12 8 5 12 -8 5 -6 13 4 27 15 19 15 19 9 -1 -5 -20 -5 -20 7 -1 9 14
9 21 1 24 -6 2 -8 10 -5 18 5 13 7 13 15 2 5 -8 6 -2 2 16 -5 19 -2 31 7 37
11 7 11 9 1 9 -10 0 -10 5 -2 20 6 11 8 20 4 20 -3 0 -1 6 5 14 9 11 9 16 0
21 -6 4 -9 19 -6 35 3 15 1 32 -6 39 -8 8 -8 11 3 11 11 0 11 3 2 12 -7 7 -12
22 -12 33 0 12 -3 25 -7 29 -5 4 -8 11 -8 14 -1 10 -37 64 -58 85 -24 24 -79
47 -114 47 -45 0 -92 -36 -116 -88 -18 -37 -22 -66 -22 -138 0 -68 -3 -90 -12
-87 -7 3 -11 8 -10 11 4 16 -40 73 -60 78 -22 6 -65 2 -129 -11 l-30 -7 0 50
c1 28 -3 48 -8 44 -5 -3 -7 2 -3 11 3 10 2 17 -4 17 -6 0 -8 3 -6 8 7 12 -26
64 -54 84 -34 25 -96 32 -134 14z"/>
</g>
</svg>
